<?plantuml 1.2026.1?><svg xmlns="http://www.w3.org/2000/svg" xmlns:xlink="http://www.w3.org/1999/xlink" contentStyleType="text/css" data-diagram-type="CLASS" height="621px" preserveAspectRatio="none" style="width:513px;height:621px;background:#FFFFFF;" version="1.1" viewBox="0 0 513 621" width="513px" zoomAndPan="magnify"><defs/><g><!--class user--><g class="entity" data-qualified-name="user" data-source-line="20" id="ent0002"><rect fill="#FEFECE" height="141.2422" rx="2.5" ry="2.5" style="stroke:#333333;stroke-width:0.5;" width="94.5322" x="78.55" y="7"/><rect fill="#E8E8E8" height="22.8047" rx="2.5" ry="2.5" style="stroke:#E8E8E8;stroke-width:0.5;" width="94.5322" x="78.55" y="7"/><rect fill="#E8E8E8" height="2.5" style="stroke:#E8E8E8;stroke-width:0.5;" width="94.5322" x="78.55" y="27.3047"/><rect fill="none" height="141.2422" rx="2.5" ry="2.5" style="stroke:#333333;stroke-width:0.5;" width="94.5322" x="78.55" y="7"/><text fill="#000000" font-family="'Segoe UI'" font-size="11" lengthAdjust="spacing" textLength="25.0723" x="113.28" y="22.2104">User</text><line style="stroke:#333333;stroke-width:0.5;" x1="79.55" x2="172.0822" y1="29.8047" y2="29.8047"/><text fill="#000000" font-family="'Segoe UI'" font-size="11" font-weight="bold" lengthAdjust="spacing" textLength="11.6445" x="84.55" y="44.0151">id</text><text fill="#000000" font-family="'Segoe UI'" font-size="11" lengthAdjust="spacing" textLength="22.4297" x="99.6911" y="44.0151">(PK)</text><line style="stroke:#333333;stroke-width:1;" x1="79.55" x2="172.0822" y1="50.6094" y2="50.6094"/><text fill="#000000" font-family="'Segoe UI'" font-size="11" lengthAdjust="spacing" textLength="82.5322" x="84.55" y="64.8198">username (UK)</text><text fill="#000000" font-family="'Segoe UI'" font-size="11" lengthAdjust="spacing" textLength="52.4165" x="84.55" y="77.6245">password</text><text fill="#000000" font-family="'Segoe UI'" font-size="11" lengthAdjust="spacing" textLength="58.6953" x="84.55" y="90.4292">created_at</text><text fill="#000000" font-family="'Segoe UI'" font-size="11" lengthAdjust="spacing" textLength="53.9419" x="84.55" y="103.2339">total_play</text><text fill="#000000" font-family="'Segoe UI'" font-size="11" lengthAdjust="spacing" textLength="24.605" x="84.55" y="116.0386">rank</text><text fill="#000000" font-family="'Segoe UI'" font-size="11" lengthAdjust="spacing" textLength="52.4272" x="84.55" y="128.8433">avg_wpm</text><text fill="#000000" font-family="'Segoe UI'" font-size="11" lengthAdjust="spacing" textLength="75.3618" x="84.55" y="141.6479">avg_accuracy</text></g><!--class settings--><g class="entity" data-qualified-name="settings" data-source-line="32" id="ent0003"><rect fill="#FEFECE" height="102.8281" rx="2.5" ry="2.5" style="stroke:#333333;stroke-width:0.5;" width="91.6372" x="7" y="253.06"/><rect fill="#E8E8E8" height="22.8047" rx="2.5" ry="2.5" style="stroke:#E8E8E8;stroke-width:0.5;" width="91.6372" x="7" y="253.06"/><rect fill="#E8E8E8" height="2.5" style="stroke:#E8E8E8;stroke-width:0.5;" width="91.6372" x="7" y="273.3647"/><rect fill="none" height="102.8281" rx="2.5" ry="2.5" style="stroke:#333333;stroke-width:0.5;" width="91.6372" x="7" y="253.06"/><text fill="#000000" font-family="'Segoe UI'" font-size="11" lengthAdjust="spacing" textLength="45.1172" x="30.26" y="268.2704">Settings</text><line style="stroke:#333333;stroke-width:0.5;" x1="8" x2="97.6372" y1="275.8647" y2="275.8647"/><text fill="#000000" font-family="'Segoe UI'" font-size="11" font-weight="bold" lengthAdjust="spacing" textLength="11.6445" x="13" y="290.0751">id</text><text fill="#000000" font-family="'Segoe UI'" font-size="11" lengthAdjust="spacing" textLength="22.4297" x="28.1411" y="290.0751">(PK)</text><line style="stroke:#333333;stroke-width:1;" x1="8" x2="97.6372" y1="296.6694" y2="296.6694"/><text fill="#000000" font-family="'Segoe UI'" font-size="11" lengthAdjust="spacing" textLength="65.1514" x="13" y="310.8798">user_id (FK)</text><text fill="#000000" font-family="'Segoe UI'" font-size="11" lengthAdjust="spacing" textLength="35.5352" x="13" y="323.6845">theme</text><text fill="#000000" font-family="'Segoe UI'" font-size="11" lengthAdjust="spacing" textLength="79.6372" x="13" y="336.4892">sound_volume</text><text fill="#000000" font-family="'Segoe UI'" font-size="11" lengthAdjust="spacing" textLength="60.9727" x="13" y="349.2939">show_hints</text></g><!--class mode--><g class="entity" data-qualified-name="mode" data-source-line="41" id="ent0004"><rect fill="#FEFECE" height="64.4141" rx="2.5" ry="2.5" style="stroke:#333333;stroke-width:0.5;" width="70.5396" x="314.55" y="45.41"/><rect fill="#E8E8E8" height="22.8047" rx="2.5" ry="2.5" style="stroke:#E8E8E8;stroke-width:0.5;" width="70.5396" x="314.55" y="45.41"/><rect fill="#E8E8E8" height="2.5" style="stroke:#E8E8E8;stroke-width:0.5;" width="70.5396" x="314.55" y="65.7147"/><rect fill="none" height="64.4141" rx="2.5" ry="2.5" style="stroke:#333333;stroke-width:0.5;" width="70.5396" x="314.55" y="45.41"/><text fill="#000000" font-family="'Segoe UI'" font-size="11" lengthAdjust="spacing" textLength="29.9707" x="334.8344" y="60.6204">Mode</text><line style="stroke:#333333;stroke-width:0.5;" x1="315.55" x2="384.0896" y1="68.2147" y2="68.2147"/><text fill="#000000" font-family="'Segoe UI'" font-size="11" font-weight="bold" lengthAdjust="spacing" textLength="11.6445" x="320.55" y="82.4251">id</text><text fill="#000000" font-family="'Segoe UI'" font-size="11" lengthAdjust="spacing" textLength="22.4297" x="335.6911" y="82.4251">(PK)</text><line style="stroke:#333333;stroke-width:1;" x1="315.55" x2="384.0896" y1="89.0194" y2="89.0194"/><text fill="#000000" font-family="'Segoe UI'" font-size="11" lengthAdjust="spacing" textLength="58.5396" x="320.55" y="103.2298">name (UK)</text></g><!--class symbol--><g class="entity" data-qualified-name="symbol" data-source-line="47" id="ent0005"><rect fill="#FEFECE" height="64.4141" rx="2.5" ry="2.5" style="stroke:#333333;stroke-width:0.5;" width="70.5396" x="420.55" y="45.41"/><rect fill="#E8E8E8" height="22.8047" rx="2.5" ry="2.5" style="stroke:#E8E8E8;stroke-width:0.5;" width="70.5396" x="420.55" y="45.41"/><rect fill="#E8E8E8" height="2.5" style="stroke:#E8E8E8;stroke-width:0.5;" width="70.5396" x="420.55" y="65.7147"/><rect fill="none" height="64.4141" rx="2.5" ry="2.5" style="stroke:#333333;stroke-width:0.5;" width="70.5396" x="420.55" y="45.41"/><text fill="#000000" font-family="'Segoe UI'" font-size="11" lengthAdjust="spacing" textLength="40.9761" x="435.3317" y="60.6204">Symbol</text><line style="stroke:#333333;stroke-width:0.5;" x1="421.55" x2="490.0896" y1="68.2147" y2="68.2147"/><text fill="#000000" font-family="'Segoe UI'" font-size="11" font-weight="bold" lengthAdjust="spacing" textLength="11.6445" x="426.55" y="82.4251">id</text><text fill="#000000" font-family="'Segoe UI'" font-size="11" lengthAdjust="spacing" textLength="22.4297" x="441.6911" y="82.4251">(PK)</text><line style="stroke:#333333;stroke-width:1;" x1="421.55" x2="490.0896" y1="89.0194" y2="89.0194"/><text fill="#000000" font-family="'Segoe UI'" font-size="11" lengthAdjust="spacing" textLength="58.5396" x="426.55" y="103.2298">name (UK)</text></g><!--class difficulty--><g class="entity" data-qualified-name="difficulty" data-source-line="53" id="ent0006"><rect fill="#FEFECE" height="77.2188" rx="2.5" ry="2.5" style="stroke:#333333;stroke-width:0.5;" width="70.5396" x="208.55" y="39.01"/><rect fill="#E8E8E8" height="22.8047" rx="2.5" ry="2.5" style="stroke:#E8E8E8;stroke-width:0.5;" width="70.5396" x="208.55" y="39.01"/><rect fill="#E8E8E8" height="2.5" style="stroke:#E8E8E8;stroke-width:0.5;" width="70.5396" x="208.55" y="59.3147"/><rect fill="none" height="77.2188" rx="2.5" ry="2.5" style="stroke:#333333;stroke-width:0.5;" width="70.5396" x="208.55" y="39.01"/><text fill="#000000" font-family="'Segoe UI'" font-size="11" lengthAdjust="spacing" textLength="49.2261" x="219.2067" y="54.2204">Difficulty</text><line style="stroke:#333333;stroke-width:0.5;" x1="209.55" x2="278.0896" y1="61.8147" y2="61.8147"/><text fill="#000000" font-family="'Segoe UI'" font-size="11" font-weight="bold" lengthAdjust="spacing" textLength="11.6445" x="214.55" y="76.0251">id</text><text fill="#000000" font-family="'Segoe UI'" font-size="11" lengthAdjust="spacing" textLength="22.4297" x="229.6911" y="76.0251">(PK)</text><line style="stroke:#333333;stroke-width:1;" x1="209.55" x2="278.0896" y1="82.6194" y2="82.6194"/><text fill="#000000" font-family="'Segoe UI'" font-size="11" lengthAdjust="spacing" textLength="58.5396" x="214.55" y="96.8298">name (UK)</text><text fill="#000000" font-family="'Segoe UI'" font-size="11" lengthAdjust="spacing" textLength="54.5005" x="214.55" y="109.6345">amt_word</text></g><!--class playsession--><g class="entity" data-qualified-name="playsession" data-source-line="60" id="ent0007"><rect fill="#FEFECE" height="166.8516" rx="2.5" ry="2.5" style="stroke:#333333;stroke-width:0.5;" width="100.897" x="269.37" y="221.05"/><rect fill="#E8E8E8" height="22.8047" rx="2.5" ry="2.5" style="stroke:#E8E8E8;stroke-width:0.5;" width="100.897" x="269.37" y="221.05"/><rect fill="#E8E8E8" height="2.5" style="stroke:#E8E8E8;stroke-width:0.5;" width="100.897" x="269.37" y="241.3547"/><rect fill="none" height="166.8516" rx="2.5" ry="2.5" style="stroke:#333333;stroke-width:0.5;" width="100.897" x="269.37" y="221.05"/><text fill="#000000" font-family="'Segoe UI'" font-size="11" lengthAdjust="spacing" textLength="64.9097" x="287.3637" y="236.2604">PlaySession</text><line style="stroke:#333333;stroke-width:0.5;" x1="270.37" x2="369.267" y1="243.8547" y2="243.8547"/><text fill="#000000" font-family="'Segoe UI'" font-size="11" font-weight="bold" lengthAdjust="spacing" textLength="11.6445" x="275.37" y="258.0651">id</text><text fill="#000000" font-family="'Segoe UI'" font-size="11" lengthAdjust="spacing" textLength="22.4297" x="290.5111" y="258.0651">(PK)</text><line style="stroke:#333333;stroke-width:1;" x1="270.37" x2="369.267" y1="264.6594" y2="264.6594"/><text fill="#000000" font-family="'Segoe UI'" font-size="11" lengthAdjust="spacing" textLength="65.1514" x="275.37" y="278.8698">user_id (FK)</text><text fill="#000000" font-family="'Segoe UI'" font-size="11" lengthAdjust="spacing" textLength="72.354" x="275.37" y="291.6745">mode_id (FK)</text><text fill="#000000" font-family="'Segoe UI'" font-size="11" lengthAdjust="spacing" textLength="88.897" x="275.37" y="304.4792">difficulty_id (FK)</text><text fill="#000000" font-family="'Segoe UI'" font-size="11" lengthAdjust="spacing" textLength="80.8833" x="275.37" y="317.2839">symbol_id (FK)</text><text fill="#000000" font-family="'Segoe UI'" font-size="11" lengthAdjust="spacing" textLength="26.6943" x="275.37" y="330.0886">wpm</text><text fill="#000000" font-family="'Segoe UI'" font-size="11" lengthAdjust="spacing" textLength="49.6289" x="275.37" y="342.8933">accuracy</text><text fill="#000000" font-family="'Segoe UI'" font-size="11" lengthAdjust="spacing" textLength="80.228" x="275.37" y="355.6979">mistake_count</text><text fill="#000000" font-family="'Segoe UI'" font-size="11" lengthAdjust="spacing" textLength="61.5151" x="275.37" y="368.5026">time_taken</text><text fill="#000000" font-family="'Segoe UI'" font-size="11" lengthAdjust="spacing" textLength="58.6953" x="275.37" y="381.3073">created_at</text></g><!--class sessiondetail--><g class="entity" data-qualified-name="sessiondetail" data-source-line="74" id="ent0008"><rect fill="#FEFECE" height="154.0469" rx="2.5" ry="2.5" style="stroke:#333333;stroke-width:0.5;" width="96.1812" x="390.73" y="460.7"/><rect fill="#E8E8E8" height="22.8047" rx="2.5" ry="2.5" style="stroke:#E8E8E8;stroke-width:0.5;" width="96.1812" x="390.73" y="460.7"/><rect fill="#E8E8E8" height="2.5" style="stroke:#E8E8E8;stroke-width:0.5;" width="96.1812" x="390.73" y="481.0047"/><rect fill="none" height="154.0469" rx="2.5" ry="2.5" style="stroke:#333333;stroke-width:0.5;" width="96.1812" x="390.73" y="460.7"/><text fill="#000000" font-family="'Segoe UI'" font-size="11" lengthAdjust="spacing" textLength="74.3735" x="401.6338" y="475.9104">SessionDetail</text><line style="stroke:#333333;stroke-width:0.5;" x1="391.73" x2="485.9112" y1="483.5047" y2="483.5047"/><text fill="#000000" font-family="'Segoe UI'" font-size="11" font-weight="bold" lengthAdjust="spacing" textLength="11.6445" x="396.73" y="497.7151">id</text><text fill="#000000" font-family="'Segoe UI'" font-size="11" lengthAdjust="spacing" textLength="22.4297" x="411.8711" y="497.7151">(PK)</text><line style="stroke:#333333;stroke-width:1;" x1="391.73" x2="485.9112" y1="504.3094" y2="504.3094"/><text fill="#000000" font-family="'Segoe UI'" font-size="11" lengthAdjust="spacing" textLength="81.877" x="396.73" y="518.5198">session_id (FK)</text><text fill="#000000" font-family="'Segoe UI'" font-size="11" lengthAdjust="spacing" textLength="80.8833" x="396.73" y="531.3245">symbol_id (FK)</text><text fill="#000000" font-family="'Segoe UI'" font-size="11" lengthAdjust="spacing" textLength="47.5234" x="396.73" y="544.1292">question</text><text fill="#000000" font-family="'Segoe UI'" font-size="11" lengthAdjust="spacing" textLength="69.2227" x="396.73" y="556.9339">user_answer</text><text fill="#000000" font-family="'Segoe UI'" font-size="11" lengthAdjust="spacing" textLength="84.1812" x="396.73" y="569.7386">correct_answer</text><text fill="#000000" font-family="'Segoe UI'" font-size="11" lengthAdjust="spacing" textLength="53.2383" x="396.73" y="582.5433">is_correct</text><text fill="#000000" font-family="'Segoe UI'" font-size="11" lengthAdjust="spacing" textLength="80.5557" x="396.73" y="595.3479">response_time</text><text fill="#000000" font-family="'Segoe UI'" font-size="11" lengthAdjust="spacing" textLength="65.3125" x="396.73" y="608.1526">order_index</text></g><!--class usermodestatus--><g class="entity" data-qualified-name="usermodestatus" data-source-line="87" id="ent0009"><rect fill="#FEFECE" height="192.4609" rx="2.5" ry="2.5" style="stroke:#333333;stroke-width:0.5;" width="100.897" x="133.37" y="208.24"/><rect fill="#E8E8E8" height="22.8047" rx="2.5" ry="2.5" style="stroke:#E8E8E8;stroke-width:0.5;" width="100.897" x="133.37" y="208.24"/><rect fill="#E8E8E8" height="2.5" style="stroke:#E8E8E8;stroke-width:0.5;" width="100.897" x="133.37" y="228.5447"/><rect fill="none" height="192.4609" rx="2.5" ry="2.5" style="stroke:#333333;stroke-width:0.5;" width="100.897" x="133.37" y="208.24"/><text fill="#000000" font-family="'Segoe UI'" font-size="11" lengthAdjust="spacing" textLength="90.0947" x="138.7711" y="223.4504">UserModeStatus</text><line style="stroke:#333333;stroke-width:0.5;" x1="134.37" x2="233.267" y1="231.0447" y2="231.0447"/><text fill="#000000" font-family="'Segoe UI'" font-size="11" font-weight="bold" lengthAdjust="spacing" textLength="11.6445" x="139.37" y="245.2551">id</text><text fill="#000000" font-family="'Segoe UI'" font-size="11" lengthAdjust="spacing" textLength="22.4297" x="154.5111" y="245.2551">(PK)</text><line style="stroke:#333333;stroke-width:1;" x1="134.37" x2="233.267" y1="251.8494" y2="251.8494"/><text fill="#000000" font-family="'Segoe UI'" font-size="11" lengthAdjust="spacing" textLength="65.1514" x="139.37" y="266.0598">user_id (FK)</text><text fill="#000000" font-family="'Segoe UI'" font-size="11" lengthAdjust="spacing" textLength="72.354" x="139.37" y="278.8645">mode_id (FK)</text><text fill="#000000" font-family="'Segoe UI'" font-size="11" lengthAdjust="spacing" textLength="88.897" x="139.37" y="291.6692">difficulty_id (FK)</text><text fill="#000000" font-family="'Segoe UI'" font-size="11" lengthAdjust="spacing" textLength="80.8833" x="139.37" y="304.4739">symbol_id (FK)</text><text fill="#000000" font-family="'Segoe UI'" font-size="11" lengthAdjust="spacing" textLength="56.1763" x="139.37" y="317.2786">high_wpm</text><text fill="#000000" font-family="'Segoe UI'" font-size="11" lengthAdjust="spacing" textLength="79.1108" x="139.37" y="330.0833">high_accuracy</text><text fill="#000000" font-family="'Segoe UI'" font-size="11" lengthAdjust="spacing" textLength="60.4517" x="139.37" y="342.8879">total_score</text><text fill="#000000" font-family="'Segoe UI'" font-size="11" lengthAdjust="spacing" textLength="80.228" x="139.37" y="355.6926">mistake_count</text><text fill="#000000" font-family="'Segoe UI'" font-size="11" lengthAdjust="spacing" textLength="24.8521" x="139.37" y="368.4973">time</text><text fill="#000000" font-family="'Segoe UI'" font-size="11" lengthAdjust="spacing" textLength="51.439" x="139.37" y="381.302">real_time</text><text fill="#000000" font-family="'Segoe UI'" font-size="11" lengthAdjust="spacing" textLength="62.2939" x="139.37" y="394.1067">updated_at</text></g><!--class content--><g class="entity" data-qualified-name="content" data-source-line="103" id="ent0010"><rect fill="#FEFECE" height="102.8281" rx="2.5" ry="2.5" style="stroke:#333333;stroke-width:0.5;" width="100.897" x="405.37" y="253.06"/><rect fill="#E8E8E8" height="22.8047" rx="2.5" ry="2.5" style="stroke:#E8E8E8;stroke-width:0.5;" width="100.897" x="405.37" y="253.06"/><rect fill="#E8E8E8" height="2.5" style="stroke:#E8E8E8;stroke-width:0.5;" width="100.897" x="405.37" y="273.3647"/><rect fill="none" height="102.8281" rx="2.5" ry="2.5" style="stroke:#333333;stroke-width:0.5;" width="100.897" x="405.37" y="253.06"/><text fill="#000000" font-family="'Segoe UI'" font-size="11" lengthAdjust="spacing" textLength="43.7476" x="433.9447" y="268.2704">Content</text><line style="stroke:#333333;stroke-width:0.5;" x1="406.37" x2="505.267" y1="275.8647" y2="275.8647"/><text fill="#000000" font-family="'Segoe UI'" font-size="11" font-weight="bold" lengthAdjust="spacing" textLength="11.6445" x="411.37" y="290.0751">id</text><text fill="#000000" font-family="'Segoe UI'" font-size="11" lengthAdjust="spacing" textLength="22.4297" x="426.5111" y="290.0751">(PK)</text><line style="stroke:#333333;stroke-width:1;" x1="406.37" x2="505.267" y1="296.6694" y2="296.6694"/><text fill="#000000" font-family="'Segoe UI'" font-size="11" lengthAdjust="spacing" textLength="72.354" x="411.37" y="310.8798">mode_id (FK)</text><text fill="#000000" font-family="'Segoe UI'" font-size="11" lengthAdjust="spacing" textLength="88.897" x="411.37" y="323.6845">difficulty_id (FK)</text><text fill="#000000" font-family="'Segoe UI'" font-size="11" lengthAdjust="spacing" textLength="80.8833" x="411.37" y="336.4892">symbol_id (FK)</text><text fill="#000000" font-family="'Segoe UI'" font-size="11" lengthAdjust="spacing" textLength="42.1147" x="411.37" y="349.2939">content</text></g><!--link user to settings--><g class="link" data-entity-1="ent0002" data-entity-2="ent0003" data-link-type="association" data-source-line="113" id="lnk11"><path codeLine="113" d="M88.59,156.47 C88.59,190.27 88.59,206.97 88.59,237.86" fill="none" id="user-settings" style="stroke:#333333;stroke-width:1;"/><line style="stroke:#333333;stroke-width:1;" x1="84.59" x2="92.59" y1="152.47" y2="152.47"/><line style="stroke:#333333;stroke-width:1;" x1="84.59" x2="92.59" y1="155.47" y2="155.47"/><line style="stroke:#333333;stroke-width:1;" x1="88.59" x2="88.59" y1="156.47" y2="148.47"/><line style="stroke:#333333;stroke-width:1;" x1="88.59" x2="88.59" y1="241.86" y2="252.86"/><ellipse cx="88.59" cy="241.86" fill="none" rx="4" ry="4" style="stroke:#333333;stroke-width:1;"/><line style="stroke:#333333;stroke-width:1;" x1="92.59" x2="84.59" y1="248.86" y2="248.86"/></g><!--link user to playsession--><g class="link" data-entity-1="ent0002" data-entity-2="ent0007" data-link-type="crowfoot" data-source-line="114" id="lnk12"><path codeLine="114" d="M181.21,137.75 C223.84,137.75 271.8,137.75 271.8,137.75 C271.8,137.75 271.8,161.11 271.8,202.62" fill="none" id="user-playsession" style="stroke:#333333;stroke-width:1;"/><line style="stroke:#333333;stroke-width:1;" x1="177.21" x2="177.21" y1="141.75" y2="133.75"/><line style="stroke:#333333;stroke-width:1;" x1="180.21" x2="180.21" y1="141.75" y2="133.75"/><line style="stroke:#333333;stroke-width:1;" x1="181.21" x2="173.21" y1="137.75" y2="137.75"/><line style="stroke:#333333;stroke-width:1;" x1="271.8" x2="277.8" y1="212.62" y2="220.62"/><line style="stroke:#333333;stroke-width:1;" x1="271.8" x2="265.8" y1="212.62" y2="220.62"/><line style="stroke:#333333;stroke-width:1;" x1="271.8" x2="271.8" y1="212.62" y2="220.62"/><ellipse cx="271.8" cy="206.62" fill="none" rx="4" ry="4" style="stroke:#333333;stroke-width:1;"/></g><!--link user to usermodestatus--><g class="link" data-entity-1="ent0002" data-entity-2="ent0009" data-link-type="crowfoot" data-source-line="115" id="lnk13"><path codeLine="115" d="M153.23,156.47 C153.23,175.32 153.23,170 153.23,189.97" fill="none" id="user-usermodestatus" style="stroke:#333333;stroke-width:1;"/><line style="stroke:#333333;stroke-width:1;" x1="149.23" x2="157.23" y1="152.47" y2="152.47"/><line style="stroke:#333333;stroke-width:1;" x1="149.23" x2="157.23" y1="155.47" y2="155.47"/><line style="stroke:#333333;stroke-width:1;" x1="153.23" x2="153.23" y1="156.47" y2="148.47"/><line style="stroke:#333333;stroke-width:1;" x1="153.23" x2="159.23" y1="199.97" y2="207.97"/><line style="stroke:#333333;stroke-width:1;" x1="153.23" x2="147.23" y1="199.97" y2="207.97"/><line style="stroke:#333333;stroke-width:1;" x1="153.23" x2="153.23" y1="199.97" y2="207.97"/><ellipse cx="153.23" cy="193.97" fill="none" rx="4" ry="4" style="stroke:#333333;stroke-width:1;"/></g><!--link mode to playsession--><g class="link" data-entity-1="ent0004" data-entity-2="ent0007" data-link-type="crowfoot" data-source-line="117" id="lnk14"><path codeLine="117" d="M351.69,118.12 C351.69,146.91 351.69,164.22 351.69,202.65" fill="none" id="mode-playsession" style="stroke:#333333;stroke-width:1;"/><line style="stroke:#333333;stroke-width:1;" x1="347.69" x2="355.69" y1="114.12" y2="114.12"/><line style="stroke:#333333;stroke-width:1;" x1="347.69" x2="355.69" y1="117.12" y2="117.12"/><line style="stroke:#333333;stroke-width:1;" x1="351.69" x2="351.69" y1="118.12" y2="110.12"/><line style="stroke:#333333;stroke-width:1;" x1="351.69" x2="357.69" y1="212.65" y2="220.65"/><line style="stroke:#333333;stroke-width:1;" x1="351.69" x2="345.69" y1="212.65" y2="220.65"/><line style="stroke:#333333;stroke-width:1;" x1="351.69" x2="351.69" y1="212.65" y2="220.65"/><ellipse cx="351.69" cy="206.65" fill="none" rx="4" ry="4" style="stroke:#333333;stroke-width:1;"/></g><!--link mode to usermodestatus--><g class="link" data-entity-1="ent0004" data-entity-2="ent0009" data-link-type="crowfoot" data-source-line="118" id="lnk15"><path codeLine="118" d="M333.12,117.99 C333.12,157.96 333.12,212.75 333.12,212.75 C333.12,212.75 295.68,212.75 252.37,212.75" fill="none" id="mode-usermodestatus" style="stroke:#333333;stroke-width:1;"/><line style="stroke:#333333;stroke-width:1;" x1="329.12" x2="337.12" y1="113.99" y2="113.99"/><line style="stroke:#333333;stroke-width:1;" x1="329.12" x2="337.12" y1="116.99" y2="116.99"/><line style="stroke:#333333;stroke-width:1;" x1="333.12" x2="333.12" y1="117.99" y2="109.99"/><line style="stroke:#333333;stroke-width:1;" x1="242.37" x2="234.37" y1="212.75" y2="218.75"/><line style="stroke:#333333;stroke-width:1;" x1="242.37" x2="234.37" y1="212.75" y2="206.75"/><line style="stroke:#333333;stroke-width:1;" x1="242.37" x2="234.37" y1="212.75" y2="212.75"/><ellipse cx="248.37" cy="212.75" fill="none" rx="4" ry="4" style="stroke:#333333;stroke-width:1;"/></g><!--link mode to content--><g class="link" data-entity-1="ent0004" data-entity-2="ent0010" data-link-type="crowfoot" data-source-line="119" id="lnk16"><path codeLine="119" d="M393.34,88.75 C408.82,88.75 415.49,88.75 415.49,88.75 C415.49,88.75 415.49,170.98 415.49,234.8" fill="none" id="mode-content" style="stroke:#333333;stroke-width:1;"/><line style="stroke:#333333;stroke-width:1;" x1="389.34" x2="389.34" y1="92.75" y2="84.75"/><line style="stroke:#333333;stroke-width:1;" x1="392.34" x2="392.34" y1="92.75" y2="84.75"/><line style="stroke:#333333;stroke-width:1;" x1="393.34" x2="385.34" y1="88.75" y2="88.75"/><line style="stroke:#333333;stroke-width:1;" x1="415.49" x2="421.49" y1="244.8" y2="252.8"/><line style="stroke:#333333;stroke-width:1;" x1="415.49" x2="409.49" y1="244.8" y2="252.8"/><line style="stroke:#333333;stroke-width:1;" x1="415.49" x2="415.49" y1="244.8" y2="252.8"/><ellipse cx="415.49" cy="238.8" fill="none" rx="4" ry="4" style="stroke:#333333;stroke-width:1;"/></g><!--link symbol to playsession--><g class="link" data-entity-1="ent0005" data-entity-2="ent0007" data-link-type="crowfoot" data-source-line="121" id="lnk17"><path codeLine="121" d="M455.82,118.03 C455.82,164.82 455.82,237.75 455.82,237.75 C455.82,237.75 427.13,237.75 388.46,237.75" fill="none" id="symbol-playsession" style="stroke:#333333;stroke-width:1;"/><line style="stroke:#333333;stroke-width:1;" x1="451.82" x2="459.82" y1="114.03" y2="114.03"/><line style="stroke:#333333;stroke-width:1;" x1="451.82" x2="459.82" y1="117.03" y2="117.03"/><line style="stroke:#333333;stroke-width:1;" x1="455.82" x2="455.82" y1="118.03" y2="110.03"/><line style="stroke:#333333;stroke-width:1;" x1="378.46" x2="370.46" y1="237.75" y2="243.75"/><line style="stroke:#333333;stroke-width:1;" x1="378.46" x2="370.46" y1="237.75" y2="231.75"/><line style="stroke:#333333;stroke-width:1;" x1="378.46" x2="370.46" y1="237.75" y2="237.75"/><ellipse cx="384.46" cy="237.75" fill="none" rx="4" ry="4" style="stroke:#333333;stroke-width:1;"/></g><!--link symbol to usermodestatus--><g class="link" data-entity-1="ent0005" data-entity-2="ent0009" data-link-type="crowfoot" data-source-line="122" id="lnk18"><path codeLine="122" d="M438.18,118.12 C438.18,159.52 438.18,217.75 438.18,217.75 C438.18,217.75 326.91,217.75 252.68,217.75" fill="none" id="symbol-usermodestatus" style="stroke:#333333;stroke-width:1;"/><line style="stroke:#333333;stroke-width:1;" x1="434.18" x2="442.18" y1="114.12" y2="114.12"/><line style="stroke:#333333;stroke-width:1;" x1="434.18" x2="442.18" y1="117.12" y2="117.12"/><line style="stroke:#333333;stroke-width:1;" x1="438.18" x2="438.18" y1="118.12" y2="110.12"/><line style="stroke:#333333;stroke-width:1;" x1="242.68" x2="234.68" y1="217.75" y2="223.75"/><line style="stroke:#333333;stroke-width:1;" x1="242.68" x2="234.68" y1="217.75" y2="211.75"/><line style="stroke:#333333;stroke-width:1;" x1="242.68" x2="234.68" y1="217.75" y2="217.75"/><ellipse cx="248.68" cy="217.75" fill="none" rx="4" ry="4" style="stroke:#333333;stroke-width:1;"/></g><!--link symbol to content--><g class="link" data-entity-1="ent0005" data-entity-2="ent0010" data-link-type="crowfoot" data-source-line="123" id="lnk19"><path codeLine="123" d="M473.45,118.12 C473.45,155.37 473.45,190.9 473.45,234.75" fill="none" id="symbol-content" style="stroke:#333333;stroke-width:1;"/><line style="stroke:#333333;stroke-width:1;" x1="469.45" x2="477.45" y1="114.12" y2="114.12"/><line style="stroke:#333333;stroke-width:1;" x1="469.45" x2="477.45" y1="117.12" y2="117.12"/><line style="stroke:#333333;stroke-width:1;" x1="473.45" x2="473.45" y1="118.12" y2="110.12"/><line style="stroke:#333333;stroke-width:1;" x1="473.45" x2="479.45" y1="244.75" y2="252.75"/><line style="stroke:#333333;stroke-width:1;" x1="473.45" x2="467.45" y1="244.75" y2="252.75"/><line style="stroke:#333333;stroke-width:1;" x1="473.45" x2="473.45" y1="244.75" y2="252.75"/><ellipse cx="473.45" cy="238.75" fill="none" rx="4" ry="4" style="stroke:#333333;stroke-width:1;"/></g><!--link symbol to sessiondetail--><g class="link" data-entity-1="ent0005" data-entity-2="ent0008" data-link-type="crowfoot" data-source-line="124" id="lnk20"><path codeLine="124" d="M412.15,67.75 C401.45,67.75 400.49,67.75 400.49,67.75 C400.49,67.75 400.49,308.97 400.49,442.38" fill="none" id="symbol-sessiondetail" style="stroke:#333333;stroke-width:1;"/><line style="stroke:#333333;stroke-width:1;" x1="416.15" x2="416.15" y1="63.75" y2="71.75"/><line style="stroke:#333333;stroke-width:1;" x1="413.15" x2="413.15" y1="63.75" y2="71.75"/><line style="stroke:#333333;stroke-width:1;" x1="412.15" x2="420.15" y1="67.75" y2="67.75"/><line style="stroke:#333333;stroke-width:1;" x1="400.49" x2="406.49" y1="452.38" y2="460.38"/><line style="stroke:#333333;stroke-width:1;" x1="400.49" x2="394.49" y1="452.38" y2="460.38"/><line style="stroke:#333333;stroke-width:1;" x1="400.49" x2="400.49" y1="452.38" y2="460.38"/><ellipse cx="400.49" cy="446.38" fill="none" rx="4" ry="4" style="stroke:#333333;stroke-width:1;"/></g><!--link difficulty to playsession--><g class="link" data-entity-1="ent0006" data-entity-2="ent0007" data-link-type="crowfoot" data-source-line="126" id="lnk21"><path codeLine="126" d="M276.66,124.62 C276.66,153.25 276.66,167.2 276.66,202.91" fill="none" id="difficulty-playsession" style="stroke:#333333;stroke-width:1;"/><line style="stroke:#333333;stroke-width:1;" x1="272.66" x2="280.66" y1="120.62" y2="120.62"/><line style="stroke:#333333;stroke-width:1;" x1="272.66" x2="280.66" y1="123.62" y2="123.62"/><line style="stroke:#333333;stroke-width:1;" x1="276.66" x2="276.66" y1="124.62" y2="116.62"/><line style="stroke:#333333;stroke-width:1;" x1="276.66" x2="282.66" y1="212.91" y2="220.91"/><line style="stroke:#333333;stroke-width:1;" x1="276.66" x2="270.66" y1="212.91" y2="220.91"/><line style="stroke:#333333;stroke-width:1;" x1="276.66" x2="276.66" y1="212.91" y2="220.91"/><ellipse cx="276.66" cy="206.91" fill="none" rx="4" ry="4" style="stroke:#333333;stroke-width:1;"/></g><!--link difficulty to usermodestatus--><g class="link" data-entity-1="ent0006" data-entity-2="ent0009" data-link-type="crowfoot" data-source-line="127" id="lnk22"><path codeLine="127" d="M221.41,124.62 C221.41,149.83 221.41,157.82 221.41,189.96" fill="none" id="difficulty-usermodestatus" style="stroke:#333333;stroke-width:1;"/><line style="stroke:#333333;stroke-width:1;" x1="217.41" x2="225.41" y1="120.62" y2="120.62"/><line style="stroke:#333333;stroke-width:1;" x1="217.41" x2="225.41" y1="123.62" y2="123.62"/><line style="stroke:#333333;stroke-width:1;" x1="221.41" x2="221.41" y1="124.62" y2="116.62"/><line style="stroke:#333333;stroke-width:1;" x1="221.41" x2="227.41" y1="199.96" y2="207.96"/><line style="stroke:#333333;stroke-width:1;" x1="221.41" x2="215.41" y1="199.96" y2="207.96"/><line style="stroke:#333333;stroke-width:1;" x1="221.41" x2="221.41" y1="199.96" y2="207.96"/><ellipse cx="221.41" cy="193.96" fill="none" rx="4" ry="4" style="stroke:#333333;stroke-width:1;"/></g><!--link difficulty to content--><g class="link" data-entity-1="ent0006" data-entity-2="ent0010" data-link-type="crowfoot" data-source-line="128" id="lnk23"><path codeLine="128" d="M274.23,124.62 C274.23,131.1 274.23,127.75 274.23,127.75 C274.23,127.75 410.43,127.75 410.43,127.75 C410.43,127.75 410.43,182.72 410.43,234.88" fill="none" id="difficulty-content" style="stroke:#333333;stroke-width:1;"/><line style="stroke:#333333;stroke-width:1;" x1="270.23" x2="278.23" y1="120.62" y2="120.62"/><line style="stroke:#333333;stroke-width:1;" x1="270.23" x2="278.23" y1="123.62" y2="123.62"/><line style="stroke:#333333;stroke-width:1;" x1="274.23" x2="274.23" y1="124.62" y2="116.62"/><line style="stroke:#333333;stroke-width:1;" x1="410.43" x2="416.43" y1="244.88" y2="252.88"/><line style="stroke:#333333;stroke-width:1;" x1="410.43" x2="404.43" y1="244.88" y2="252.88"/><line style="stroke:#333333;stroke-width:1;" x1="410.43" x2="410.43" y1="244.88" y2="252.88"/><ellipse cx="410.43" cy="238.88" fill="none" rx="4" ry="4" style="stroke:#333333;stroke-width:1;"/></g><!--link playsession to sessiondetail--><g class="link" data-entity-1="ent0007" data-entity-2="ent0008" data-link-type="crowfoot" data-source-line="130" id="lnk24"><path codeLine="130" d="M378.37,372.75 C392.27,372.75 395.61,372.75 395.61,372.75 C395.61,372.75 395.61,399.61 395.61,442.55" fill="none" id="playsession-sessiondetail" style="stroke:#333333;stroke-width:1;"/><line style="stroke:#333333;stroke-width:1;" x1="374.37" x2="374.37" y1="376.75" y2="368.75"/><line style="stroke:#333333;stroke-width:1;" x1="377.37" x2="377.37" y1="376.75" y2="368.75"/><line style="stroke:#333333;stroke-width:1;" x1="378.37" x2="370.37" y1="372.75" y2="372.75"/><line style="stroke:#333333;stroke-width:1;" x1="395.61" x2="401.61" y1="452.55" y2="460.55"/><line style="stroke:#333333;stroke-width:1;" x1="395.61" x2="389.61" y1="452.55" y2="460.55"/><line style="stroke:#333333;stroke-width:1;" x1="395.61" x2="395.61" y1="452.55" y2="460.55"/><ellipse cx="395.61" cy="446.55" fill="none" rx="4" ry="4" style="stroke:#333333;stroke-width:1;"/></g><?plantuml-src lLLBRzim3BxhLmZPeUaXsBfTTYWAT6c25iE60a7FXc8piH1RyaIwNjRilq-Y7J-IO5atOCuXr4UQZuyKZHjj2kLKBZDjWBO5IEiejG9R1QOgiPKsQxbI6K9Fay1AbHdDhQ6lAWSvMi3QWdnw69qsMkWV8A_UYvuspXIYV17IFvzKl5axMvfaQZFhv9lvR3wRpcgTTGcu1l_03-Etpjdg6EwYDMP4JYzBWavnnOfxKDxlKUJPn_1ZYmM10nkOQTzz9tuASI7lTGAIKf0p6MiNPo2LIIIszYZIO57hQhbJ2W66D6tbw0d1ZQH2MNgXeU9wUQEJwxVB6pb-_7p9q6J2Vy781BB7JusYy0nMdXu-n0uKGH8fuYDPKbbKP6hBHwVCXWNrl8wg8czb5SUbK_4s5BRFQm54lkl8kM5p-AFy8ft8yRp1FK4vi8I1uEZPPkKUI6qLfTeGzkD-iGbmpDmBP-DrNFHJt-PBczM9i_XtRkxqQgLZFxnRTfMqnrUuOuPpYhX3FT-FlYSBGDJMiFFG8wpFh-SuC3K0kbG7S4t606gdO3y1x4yZgGr4iUzOCqWwXoXWvd3C1XF3-Ty1ATsmNoC98sVhQgpFfVoj12Hlrt6X35RWwioiSn1J7z8ODMXz2G0BQz2NevivvDqIQP_cztuvuMA6OLoGeXBRAnh8HeR-QwDIlKxREyk7GSlgcuw-KFXD2ni2l6LxAelaH2kdVjTvcOkEQ_bijVzGN1EYtgjJlz8lKAwi9MbyMQ7NSlmmkvILzf-cacIcbf2Xu8MvsqqcTjSjg1xwChXL0yL18uNWPNFghRxYyAs-Ri-I_xhLA-UKiw7gqDrGspeSmiCh9KHlAvsAUAm-Z7fiqPNITtKo_Yy0?></g></svg>