<svg width="14" height="14" viewBox="0 0 14 14" fill="none" xmlns="http://www.w3.org/2000/svg">
<g clip-path="url(#clip0_343_70)">
<path fill-rule="evenodd" clip-rule="evenodd" d="M7 0V1.55555C10.0014 1.55555 12.4444 3.99778 12.4444 7C12.4444 10.0022 10.0014 12.4444 7 12.4444C3.99855 12.4444 1.55555 10.0022 1.55555 7C1.55555 5.56345 2.12722 4.21089 3.11111 3.20289V5.05555H4.66667V0.77778H0.388886V2.33333H1.78189C0.646333 3.60267 0 5.257 0 7C0 10.8593 3.13989 14 7 14C10.8601 14 14 10.8593 14 7C14 3.14067 10.8601 0 7 0Z" fill="#9CA3AF"/>
</g>
<defs>
<clipPath id="clip0_343_70">
<rect width="14" height="14" fill="white"/>
</clipPath>
</defs>
</svg>
